Coordinates
version=1
nRows=17
nColumns=23
inDegrees=yes

Units are S.I. units (second, meters, Newtons, ...)
If the header above contains a line with 'inDegrees', this indicates whether rotational values are in degrees (yes) or radians (no).

endheader
time	pelvis_tilt	pelvis_list	pelvis_rotation	pelvis_tx	pelvis_ty	pelvis_tz	hip_flexion_r	hip_adduction_r	hip_rotation_r	knee_angle_r	knee_angle_r_beta	ankle_angle_r	subtalar_angle_r	mtp_angle_r	hip_flexion_l	hip_adduction_l	hip_rotation_l	knee_angle_l	knee_angle_l_beta	ankle_angle_l	subtalar_angle_l	mtp_angle_l
      7.50000000	     -6.86996040	      3.59583150	     -3.56298911	      2.34072352	      1.06223373	      1.01801137	     -7.79013627	     -4.47269519	     -3.86984954	     39.22532315	      0.68461104	    -16.18704215	     -7.96115337	      0.00000000	     23.59486608	      4.71583813	     -5.24752978	     10.27888801	      0.17940044	      9.86504865	     -3.39081138	      0.00000000
      7.50666667	     -5.89328773	      4.08230047	     -3.19904003	      2.34028206	      1.05904393	      1.01696816	     -8.00791511	     -5.04041419	     -3.54237581	     42.20705627	      0.73665210	    -15.89150902	     -9.12422696	      0.00000000	     22.84704787	      5.42859594	     -5.65797707	     11.94540616	      0.20848667	      9.20503242	     -3.93712325	      0.00000000
      7.51333333	     -5.85042581	      4.48295481	     -3.13346334	      2.33892967	      1.05397165	      1.01635085	     -6.82062430	     -5.42518480	     -2.63023035	     45.76735336	      0.79879101	    -15.53353029	    -10.31622582	      0.00000000	     23.68941323	      5.60023164	     -7.38860384	     14.95440082	      0.26100353	      9.37798165	     -2.95987733	      0.00000000
      7.52000000	     -5.44531432	      4.91446719	     -2.89691021	      2.33772233	      1.04916914	      1.01562159	     -6.10171676	     -5.79553861	     -1.93949994	     49.14622352	      0.85776342	    -15.27210288	    -11.47150741	      0.00000000	     23.87111013	      6.02088491	     -7.97545613	     17.49836749	      0.30540413	      8.84150175	     -3.41983664	      0.00000000
      7.52666667	     -5.08912027	      5.27494672	     -2.62214685	      2.33630647	      1.04395870	      1.01490011	     -5.26877094	     -6.06037526	     -1.30144565	     52.55585164	      0.91727265	    -15.02154222	    -12.55853506	      0.00000000	     24.19753617	      6.32374555	     -8.53689311	     20.32500816	      0.35473831	      8.49278313	     -3.71416228	      0.00000000
      7.53333333	     -4.80623189	      5.61337106	     -2.34097836	      2.33468879	      1.03844314	      1.01428912	     -4.29277223	     -6.25752038	     -0.66630888	     55.96978079	      0.97685696	    -14.80061907	    -13.54205669	      0.00000000	     24.60899523	      6.61605087	     -8.81866529	     23.21267251	      0.40513756	      8.30879202	     -4.31422595	      0.00000000
      7.54000000	     -4.62775841	      5.90600298	     -2.01982919	      2.33289781	      1.03262804	      1.01367618	     -3.14599958	     -6.40565449	     -0.12369889	     59.38127925	      1.03639884	    -14.58052089	    -14.46164330	      0.00000000	     25.16171039	      6.85173877	     -9.02932396	     26.21351763	      0.45751219	      8.46740181	     -4.77449896	      0.00000000
      7.54666667	     -4.48579740	      6.18238671	     -1.71361962	      2.33093359	      1.02670385	      1.01316497	     -1.89959452	     -6.52226682	      0.40738112	     62.75081090	      1.09520826	    -14.35204899	    -15.28936183	      0.00000000	     25.73375484	      7.05186818	     -9.20320247	     29.22202925	      0.51002062	      9.06233891	     -5.09932340	      0.00000000
      7.55333333	     -4.40311723	      6.38811216	     -1.35000370	      2.32882143	      1.02075643	      1.01264246	     -0.55524801	     -6.56926584	      0.82449091	     66.03526980	      1.15253288	    -14.09929792	    -16.02515771	      0.00000000	     26.31794575	      7.23437105	     -9.14471657	     32.17092752	      0.56148861	      9.98015928	     -5.47585395	      0.00000000
      7.56000000	     -4.36060297	      6.56314739	     -1.00043133	      2.32660022	      1.01489037	      1.01224527	      0.88860408	     -6.58144581	      1.22349393	     69.23599946	      1.20839615	    -13.80470287	    -16.68946181	      0.00000000	     26.86251467	      7.37440412	     -9.09325964	     35.01071819	      0.61105231	     11.28317338	     -5.62169834	      0.00000000
      7.56666667	     -4.29729075	      6.68462198	     -0.62854608	      2.32438779	      1.00926423	      1.01187098	      2.32665055	     -6.57165345	      1.51047842	     72.28376150	      1.26158963	    -13.47710052	    -17.28431692	      0.00000000	     27.26074957	      7.47762135	     -8.98188990	     37.67093194	      0.65748179	     12.83598426	     -5.58047524	      0.00000000
      7.57333333	     -3.91686358	      6.81878803	     -0.27429154	      2.32226696	      1.00445896	      1.01156812	      3.41640566	     -6.61442941	      1.70103455	     75.10017249	      1.31074528	    -13.11572806	    -17.84967842	      0.00000000	     27.09737956	      7.66912627	     -8.70300998	     39.94202120	      0.69711978	     14.50109728	     -5.62151228	      0.00000000
      7.58000000	     -4.26409852	      6.85868628	     -0.03680240	      2.31985677	      0.99875921	      1.01157700	      5.47611354	     -6.50567995	      2.10924914	     78.00045328	      1.36136473	    -12.62399777	    -18.32568759	      0.00000000	     27.71234848	      7.51177137	     -8.92591675	     42.28375843	      0.73799080	     16.41051851	     -4.74155006	      0.00000000
      7.58666667	     -4.18678827	      6.87454821	      0.26157279	      2.31771589	      0.99423214	      1.01151943	      7.00495979	     -6.42973078	      2.29816714	     80.54225222	      1.40572749	    -12.19644481	    -18.73330766	      0.00000000	     27.59903734	      7.44107036	     -8.92685795	     44.15284823	      0.77061258	     18.17907194	     -4.11911439	      0.00000000
      7.59333333	     -4.12483245	      6.88072349	      0.53359757	      2.31563220	      0.99014444	      1.01146269	      8.58492371	     -6.38726920	      2.44958284	     82.90237965	      1.44691948	    -11.72165913	    -19.08014198	      0.00000000	     27.33291937	      7.39164005	     -8.84960784	     45.72749836	      0.79809541	     19.94442979	     -3.48097412	      0.00000000
      7.60000000	     -4.06717539	      6.89984350	      0.68546721	      2.31360173	      0.98652666	      1.01156924	     10.23232007	     -6.36293732	      2.68018333	     85.08679961	      1.48504480	    -11.18388077	    -19.36984056	      0.00000000	     26.90095586	      7.29187020	     -8.91142549	     47.00270919	      0.82035203	     21.59531618	     -2.72032326	      0.00000000
      7.60666667	     -3.65393331	      6.89587095	      0.87651993	      2.31185195	      0.98412990	      1.01148449	     11.42225686	     -6.35800974	      2.77525998	     86.90460598	      1.51677151	    -10.68564670	    -19.71826588	      0.00000000	     25.86222769	      7.32987532	     -8.64538079	     47.84900232	      0.83512263	     22.98578148	     -2.55495870	      0.00000000
